<svg width="100" height="100" viewBox="0 0 100 100" fill="none" xmlns="http://www.w3.org/2000/svg">
  <rect width="100" height="100" rx="20" fill="#3B82F6"/>
  <path d="M30 70C30 58.954 38.954 50 50 50C61.046 50 70 58.954 70 70" stroke="white" stroke-width="8" stroke-linecap="round"/>
  <circle cx="50" cy="35" r="15" stroke="white" stroke-width="8"/>
  <path d="M80 35C80 38.866 76.866 42 73 42C69.134 42 66 38.866 66 35C66 31.134 69.134 28 73 28C76.866 28 80 31.134 80 35Z" fill="white"/>
  <path d="M34 35C34 38.866 30.866 42 27 42C23.134 42 20 38.866 20 35C20 31.134 23.134 28 27 28C30.866 28 34 31.134 34 35Z" fill="white"/>
  <style>
    @media (prefers-color-scheme: dark) {
      rect { fill: #2563EB; }
    }
  </style>
</svg>